<svg xmlns="http://www.w3.org/2000/svg" viewBox="0 0 64 64">
  <defs>
    <linearGradient id="g" x1="0" y1="0" x2="64" y2="64">
      <stop offset="0%" stop-color="#dc2626"/>
      <stop offset="100%" stop-color="#c9a84c"/>
    </linearGradient>
    <linearGradient id="g2" x1="0" y1="0" x2="64" y2="64">
      <stop offset="0%" stop-color="#c9a84c"/>
      <stop offset="100%" stop-color="#dc2626"/>
    </linearGradient>
  </defs>
  <rect width="64" height="64" rx="10" fill="#0d0d16"/>
  <g transform="translate(32,32)">
    <path d="M0-26 L-18 22 L-8 22 L-4 12 L4 12 L8 22 L18 22 Z" fill="url(#g)"/>
    <path d="M0-12 L-6 6 L6 6 Z" fill="#0d0d16"/>
    <line x1="-10" y1="8" x2="10" y2="8" stroke="#c9a84c" stroke-width="2" stroke-linecap="square"/>
    <circle cx="0" cy="-28" r="3" fill="url(#g2)"/>
    <path d="M-18 22 Q-24 28 -20 34 Q-16 38 -10 34" fill="none" stroke="url(#g)" stroke-width="1.5" stroke-linecap="round" opacity="0.5"/>
    <path d="M18 22 Q24 28 20 34 Q16 38 10 34" fill="none" stroke="url(#g)" stroke-width="1.5" stroke-linecap="round" opacity="0.5"/>
  </g>
</svg>
